<svg width="64" height="64" viewBox="0 0 64 64" fill="none" xmlns="http://www.w3.org/2000/svg">
<path d="M32 12C19.8497 12 10 21.8497 10 34C10 39.5378 12.0606 44.6081 15.5279 48.4721M32 12C44.1503 12 54 21.8497 54 34C54 39.5378 51.9394 44.6081 48.4721 48.4721M32 12V4M48.4721 48.4721C44.6081 51.9394 39.5378 54 34 54C21.8497 54 12 44.1503 12 32C12 26.4622 14.0606 21.3919 17.5279 17.5279M48.4721 48.4721L56 56M17.5279 17.5279L10 10M17.5279 17.5279C21.3919 14.0606 26.4622 12 32 12M32 54V60M24 33H40" stroke="#A8A39D" stroke-width="2" stroke-linecap="round" stroke-linejoin="round"/>
<circle cx="32" cy="33" r="5" stroke="#A8A39D" stroke-width="2"/>
</svg>
