<svg width="48" height="48" viewBox="0 0 48 48" fill="none" xmlns="http://www.w3.org/2000/svg">
<path d="M24 10C26.2091 10 28 11.7909 28 14C28 16.2091 26.2091 18 24 18C21.7909 18 20 16.2091 20 14C20 11.7909 21.7909 10 24 10Z" stroke="#A8A39D" stroke-width="2"/>
<path d="M16 20C17.6569 20 19 21.3431 19 23C19 24.6569 17.6569 26 16 26C14.3431 26 13 24.6569 13 23C13 21.3431 14.3431 20 16 20Z" stroke="#A8A39D" stroke-width="2"/>
<path d="M32 20C33.6569 20 35 21.3431 35 23C35 24.6569 33.6569 26 32 26C30.3431 26 29 24.6569 29 23C29 21.3431 30.3431 20 32 20Z" stroke="#A8A39D" stroke-width="2"/>
<path d="M24 28C26.2091 28 28 29.7909 28 32C28 34.2091 26.2091 36 24 36C21.7909 36 20 34.2091 20 32C20 29.7909 21.7909 28 24 28Z" stroke="#A8A39D" stroke-width="2"/>
<path d="M24 18V28M16 26L20.5 29.5M32 26L27.5 29.5" stroke="#A8A39D" stroke-width="2" stroke-linecap="round" stroke-linejoin="round"/>
</svg>
