<svg width="100" height="100" viewBox="0 0 100 100" fill="none" xmlns="http://www.w3.org/2000/svg">
<defs>
  <radialGradient id="glowGradient" cx="50%" cy="50%" r="50%" fx="50%" fy="50%">
    <stop offset="0%" style="stop-color:#FF6B6B;stop-opacity:0.6" />
    <stop offset="100%" style="stop-color:#FF6B6B;stop-opacity:0" />
  </radialGradient>
</defs>
<circle cx="50" cy="50" r="45" fill="url(#glowGradient)"/>
<path d="M40.8125 34.5938C40.8125 31.3438 41.7188 28.6875 43.5312 26.625C45.3438 24.5625 47.7812 23.5312 50.8438 23.5312C53.8125 23.5312 56.1875 24.5625 57.9688 26.625C59.75 28.6875 60.6406 31.3438 60.6406 34.5938C60.6406 36.5312 60.2344 38.4375 59.4219 40.3125C58.6094 42.1875 57.5312 43.9062 56.1875 45.4688L52.375 49.7812C51.6562 50.5625 51.0625 51.3125 50.5938 52.0312C50.125 52.75 49.8906 53.625 49.8906 54.6562V57.8438H44.9219V53.9062C44.9219 52.6562 45.2031 51.5625 45.7656 50.625C46.3281 49.6875 47.0938 48.7812 48.0625 47.9062L51.0625 44.7188C52.0312 43.6875 52.7188 42.625 53.125 41.5312C53.5312 40.4375 53.7344 39.2188 53.7344 37.875C53.7344 35.9375 53.1562 34.375 52 33.1875C50.8438 31.9062 49.2188 31.2656 47.125 31.2656C45.5312 31.2656 44.25 31.7188 43.2812 32.625C42.3125 33.5312 41.8281 34.6875 41.8281 36.0938H36.8594C36.8594 33.5625 37.4688 31.3125 38.6875 29.3438C39.9062 27.2812 41.5312 25.7188 43.5625 24.6562C45.5938 23.5000 47.9688 22.9219 50.6875 22.9219C53.5 22.9219 55.8438 23.5312 57.7188 24.75C59.5938 25.9688 60.9688 27.6562 61.8438 29.8125C62.7188 31.875 63.1562 34.2188 63.1562 36.8438C63.1562 38.5312 62.8438 40.125 62.2188 41.625C61.5938 43.125 60.75 44.5 59.6875 45.75L55.8125 49.9688C54.8438 51.0625 54.1562 52.0312 53.75 52.875C53.3438 53.7188 53.1406 54.75 53.1406 55.9688V58.4062H55.625V62.4688H41.25V55.9688C41.25 54.5312 41.5312 53.2188 42.0938 52.0312C42.6562 50.8438 43.375 49.7812 44.25 48.8438L47.6562 45.375C48.5625 44.3438 49.2188 43.3125 49.625 42.2812C50.0312 41.1562 50.2344 39.9688 50.2344 38.7188C50.2344 37.5625 49.9375 36.625 49.3438 35.8906C48.75 35.0625 47.9688 34.6562 47 34.6562C46.0312 34.6562 45.25 34.9688 44.6562 35.5938C44.0625 36.125 43.6875 36.8125 43.5312 37.6562H40.8125V34.5938Z" fill="#A8A39D"/>
<circle cx="47.5" cy="69.5" r="4.5" fill="#A8A39D"/>
</svg>
